<svg width="81" height="37" viewBox="0 0 81 37" fill="none" xmlns="http://www.w3.org/2000/svg">
<path d="M0.00327577 19.5994V15.0656L7.27134 4.92801H0.310771V0.225281H15.2103V4.61825L7.83042 14.8967H15.1824V19.5994H0.00327577Z" fill="white"/>
<path d="M25.8571 19.8247C24.1612 19.8247 22.7728 19.7214 21.6919 19.5149C20.6297 19.3084 19.8004 18.9799 19.204 18.5293C18.6077 18.0788 18.1697 17.4686 17.8902 16.6989C17.6293 15.9292 17.4709 14.9906 17.415 13.8829C17.3591 12.7565 17.3311 11.433 17.3311 9.91235C17.3311 8.39171 17.3591 7.07757 17.415 5.96994C17.4709 4.84353 17.6293 3.89548 17.8902 3.12577C18.1697 2.35606 18.6077 1.74592 19.204 1.29536C19.8004 0.844803 20.6297 0.516268 21.6919 0.30976C22.7728 0.103253 24.1612 0 25.8571 0C27.553 0 28.9321 0.103253 29.9943 0.30976C31.0752 0.516268 31.9138 0.844803 32.5102 1.29536C33.1252 1.74592 33.5631 2.35606 33.824 3.12577C34.0849 3.89548 34.2433 4.84353 34.2992 5.96994C34.3738 7.07757 34.4111 8.39171 34.4111 9.91235C34.4111 11.433 34.3738 12.7565 34.2992 13.8829C34.2433 14.9906 34.0849 15.9292 33.824 16.6989C33.5631 17.4686 33.1252 18.0788 32.5102 18.5293C31.9138 18.9799 31.0752 19.3084 29.9943 19.5149C28.9321 19.7214 27.553 19.8247 25.8571 19.8247ZM25.8571 15.122C26.2485 15.122 26.5653 15.1032 26.8075 15.0656C27.0684 15.0281 27.2641 14.9248 27.3946 14.7559C27.5437 14.5869 27.6462 14.3241 27.7021 13.9674C27.758 13.5919 27.7953 13.0757 27.8139 12.4186C27.8325 11.7615 27.8418 10.9261 27.8418 9.91235C27.8418 8.89859 27.8325 8.06317 27.8139 7.4061C27.7953 6.74903 27.758 6.24215 27.7021 5.88546C27.6462 5.50999 27.5437 5.23778 27.3946 5.06881C27.2641 4.89985 27.0684 4.7966 26.8075 4.75905C26.5653 4.72151 26.2485 4.70273 25.8571 4.70273C25.4657 4.70273 25.1396 4.72151 24.8787 4.75905C24.6364 4.7966 24.4501 4.89985 24.3196 5.06881C24.1892 5.23778 24.0867 5.50999 24.0121 5.88546C23.9562 6.24215 23.919 6.74903 23.9003 7.4061C23.9003 8.06317 23.9003 8.89859 23.9003 9.91235C23.9003 10.9261 23.9003 11.7615 23.9003 12.4186C23.919 13.0757 23.9562 13.5919 24.0121 13.9674C24.0867 14.3241 24.1892 14.5869 24.3196 14.7559C24.4501 14.9248 24.6364 15.0281 24.8787 15.0656C25.1396 15.1032 25.4657 15.122 25.8571 15.122Z" fill="white"/>
<path d="M45.1751 19.8247C43.4792 19.8247 42.0909 19.7214 41.01 19.5149C39.9477 19.3084 39.1184 18.9799 38.5221 18.5293C37.9257 18.0788 37.4878 17.4686 37.2082 16.6989C36.9473 15.9292 36.7889 14.9906 36.733 13.8829C36.6771 12.7565 36.6491 11.433 36.6491 9.91235C36.6491 8.39171 36.6771 7.07757 36.733 5.96994C36.7889 4.84353 36.9473 3.89548 37.2082 3.12577C37.4878 2.35606 37.9257 1.74592 38.5221 1.29536C39.1184 0.844803 39.9477 0.516268 41.01 0.30976C42.0909 0.103253 43.4792 0 45.1751 0C46.871 0 48.2501 0.103253 49.3123 0.30976C50.3932 0.516268 51.2318 0.844803 51.8282 1.29536C52.4432 1.74592 52.8811 2.35606 53.142 3.12577C53.403 3.89548 53.5614 4.84353 53.6173 5.96994C53.6918 7.07757 53.7291 8.39171 53.7291 9.91235C53.7291 11.433 53.6918 12.7565 53.6173 13.8829C53.5614 14.9906 53.403 15.9292 53.142 16.6989C52.8811 17.4686 52.4432 18.0788 51.8282 18.5293C51.2318 18.9799 50.3932 19.3084 49.3123 19.5149C48.2501 19.7214 46.871 19.8247 45.1751 19.8247ZM45.1751 15.122C45.5665 15.122 45.8833 15.1032 46.1256 15.0656C46.3865 15.0281 46.5821 14.9248 46.7126 14.7559C46.8617 14.5869 46.9642 14.3241 47.0201 13.9674C47.076 13.5919 47.1133 13.0757 47.1319 12.4186C47.1506 11.7615 47.1599 10.9261 47.1599 9.91235C47.1599 8.89859 47.1506 8.06317 47.1319 7.4061C47.1133 6.74903 47.076 6.24215 47.0201 5.88546C46.9642 5.50999 46.8617 5.23778 46.7126 5.06881C46.5821 4.89985 46.3865 4.7966 46.1256 4.75905C45.8833 4.72151 45.5665 4.70273 45.1751 4.70273C44.7838 4.70273 44.4576 4.72151 44.1967 4.75905C43.9545 4.7966 43.7681 4.89985 43.6377 5.06881C43.5072 5.23778 43.4047 5.50999 43.3302 5.88546C43.2743 6.24215 43.237 6.74903 43.2183 7.4061C43.2183 8.06317 43.2183 8.89859 43.2183 9.91235C43.2183 10.9261 43.2183 11.7615 43.2183 12.4186C43.237 13.0757 43.2743 13.5919 43.3302 13.9674C43.4047 14.3241 43.5072 14.5869 43.6377 14.7559C43.7681 14.9248 43.9545 15.0281 44.1967 15.0656C44.4576 15.1032 44.7838 15.122 45.1751 15.122Z" fill="white"/>
<path d="M56.2187 19.5994V0.225281H65.1641L67.3165 9.32099H67.5681L69.6926 0.225281H78.61V19.5994H72.3762V8.70147H72.0687L69.4969 19.5994H65.1641L62.5923 8.70147H62.2848V19.5994H56.2187Z" fill="white"/>
<path d="M3.17978 37C2.63623 37 2.17421 36.9687 1.79372 36.9061C1.421 36.8514 1.11428 36.7419 0.873566 36.5776C0.640615 36.4133 0.458137 36.1826 0.326131 35.8853C0.201891 35.5803 0.116475 35.1813 0.0698853 34.6885C0.0232951 34.1957 0 33.5895 0 32.8699C0 32.158 0.0232951 31.5596 0.0698853 31.0747C0.116475 30.5819 0.201891 30.1829 0.326131 29.8778C0.458137 29.5728 0.640615 29.3381 0.873566 29.1738C1.11428 29.0096 1.421 28.8962 1.79372 28.8336C2.17421 28.771 2.63623 28.7397 3.17978 28.7397C3.38943 28.7397 3.60297 28.7475 3.82039 28.7632C4.04558 28.771 4.25912 28.7866 4.46101 28.8101C4.67066 28.8336 4.85314 28.8649 5.00844 28.904V29.5258C4.83761 29.5024 4.65513 29.4828 4.46101 29.4672C4.27465 29.4437 4.0844 29.4281 3.89028 29.4202C3.70392 29.4124 3.53309 29.4085 3.37779 29.4085C2.89636 29.4085 2.49646 29.4281 2.17809 29.4672C1.85972 29.5063 1.60348 29.5884 1.40935 29.7136C1.22299 29.8309 1.07934 30.0147 0.978393 30.265C0.885213 30.5154 0.823093 30.8517 0.792033 31.2741C0.760973 31.6965 0.745443 32.2284 0.745443 32.8699C0.745443 33.5113 0.760973 34.0432 0.792033 34.4656C0.823093 34.888 0.885213 35.2243 0.978393 35.4747C1.07934 35.725 1.22299 35.9127 1.40935 36.0379C1.60348 36.1552 1.85972 36.2334 2.17809 36.2725C2.49646 36.3116 2.89636 36.3312 3.37779 36.3312C3.6418 36.3312 3.9291 36.3195 4.2397 36.296C4.55031 36.2725 4.82208 36.2452 5.05503 36.2139V36.8592C4.89197 36.8905 4.70172 36.914 4.4843 36.9296C4.26688 36.9531 4.04558 36.9687 3.82039 36.9765C3.59521 36.9922 3.38167 37 3.17978 37Z" fill="#CBCBCB"/>
<path d="M16.9375 37C16.3241 37 15.8155 36.9687 15.4117 36.9061C15.0157 36.8436 14.7012 36.7301 14.4682 36.5659C14.2353 36.4016 14.0645 36.1669 13.9558 35.8619C13.847 35.549 13.7772 35.15 13.7461 34.6651C13.715 34.1801 13.6995 33.5817 13.6995 32.8699C13.6995 32.158 13.715 31.5596 13.7461 31.0747C13.7772 30.5897 13.847 30.1946 13.9558 29.8896C14.0645 29.5767 14.2353 29.3381 14.4682 29.1738C14.7012 29.0096 15.0157 28.8962 15.4117 28.8336C15.8155 28.771 16.3241 28.7397 16.9375 28.7397C17.551 28.7397 18.0557 28.771 18.4517 28.8336C18.8555 28.8962 19.1739 29.0096 19.4068 29.1738C19.6398 29.3381 19.8106 29.5767 19.9193 29.8896C20.028 30.1946 20.0979 30.5897 20.129 31.0747C20.16 31.5596 20.1755 32.158 20.1755 32.8699C20.1755 33.5817 20.16 34.1801 20.129 34.6651C20.0979 35.15 20.028 35.549 19.9193 35.8619C19.8106 36.1669 19.6398 36.4016 19.4068 36.5659C19.1739 36.7301 18.8555 36.8436 18.4517 36.9061C18.0557 36.9687 17.551 37 16.9375 37ZM16.9375 36.3312C17.4034 36.3312 17.7878 36.3195 18.0906 36.296C18.3935 36.2725 18.6342 36.206 18.8128 36.0965C18.9914 35.987 19.1273 35.811 19.2204 35.5685C19.3136 35.3182 19.3719 34.9779 19.3952 34.5477C19.4185 34.1097 19.4301 33.5504 19.4301 32.8699C19.4301 32.1893 19.4185 31.6339 19.3952 31.2037C19.3719 30.7657 19.3136 30.4254 19.2204 30.1829C19.1273 29.9326 18.9914 29.7527 18.8128 29.6432C18.6342 29.5337 18.3935 29.4672 18.0906 29.4437C17.7878 29.4202 17.4034 29.4085 16.9375 29.4085C16.4794 29.4085 16.0989 29.4202 15.7961 29.4437C15.4932 29.4672 15.2486 29.5337 15.0623 29.6432C14.8837 29.7527 14.7478 29.9326 14.6546 30.1829C14.5692 30.4254 14.511 30.7657 14.4799 31.2037C14.4566 31.6339 14.445 32.1893 14.445 32.8699C14.445 33.5504 14.4566 34.1097 14.4799 34.5477C14.511 34.9779 14.5692 35.3182 14.6546 35.5685C14.7478 35.811 14.8837 35.987 15.0623 36.0965C15.2486 36.206 15.4932 36.2725 15.7961 36.296C16.0989 36.3195 16.4794 36.3312 16.9375 36.3312Z" fill="#CBCBCB"/>
<path d="M29.362 36.9061V28.8336H30.3637L33.4037 35.7093H33.4619L36.5019 28.8336H37.4803V36.9061H36.7582V30.1008H36.7116L33.6949 36.9061H33.1241L30.1191 30.1008H30.0725V36.9061H29.362Z" fill="#CBCBCB"/>
<path d="M46.9516 36.9061V28.8336H50.5856C51.0904 28.8336 51.4864 28.8962 51.7737 29.0213C52.061 29.1465 52.2745 29.3225 52.4143 29.5493C52.5541 29.7683 52.6434 30.0226 52.6822 30.312C52.721 30.5936 52.7404 30.8947 52.7404 31.2155C52.7404 31.5127 52.7132 31.8178 52.6589 32.1307C52.6123 32.4357 52.4997 32.7095 52.3211 32.952C52.1425 33.1867 51.8552 33.3587 51.4592 33.4683L52.8453 36.9061H52.0299L50.6672 33.4331L50.9118 33.5504C50.8574 33.566 50.7875 33.5778 50.7021 33.5856C50.6167 33.5934 50.4963 33.5973 50.341 33.5973H47.697V36.9061H46.9516ZM47.697 32.9285H50.2595C50.6633 32.9285 50.9816 32.8894 51.2146 32.8112C51.4476 32.733 51.6184 32.6195 51.7271 32.4709C51.8436 32.3223 51.9173 32.1424 51.9484 31.9312C51.9795 31.72 51.995 31.4814 51.995 31.2155C51.995 30.9417 51.9795 30.6992 51.9484 30.488C51.9251 30.2768 51.863 30.0969 51.762 29.9482C51.6611 29.7996 51.5019 29.6901 51.2845 29.6197C51.0671 29.5415 50.7681 29.5024 50.3876 29.5024H47.697V32.9285Z" fill="#CBCBCB"/>
<path d="M61.0407 36.9061L64.1972 28.8336H65.0824L68.2272 36.9061H67.4468L66.515 34.5243H62.7296L61.8094 36.9061H61.0407ZM62.9742 33.8555H66.2704L64.6514 29.6784H64.5932L62.9742 33.8555Z" fill="#CBCBCB"/>
<path d="M77.6455 36.9061V29.5141H75.0365V28.8336H81V29.5141H78.391V36.9061H77.6455Z" fill="#CBCBCB"/>
</svg>
