<svg width="231" height="105" viewBox="0 0 231 105" fill="none" xmlns="http://www.w3.org/2000/svg">
<path d="M0.00934202 55.62V42.7539L20.7368 13.9849H0.886272V0.639311H43.3775V13.1059L22.3312 42.2744H43.2978V55.62H0.00934202Z" fill="#CDDEFF"/>
<path d="M73.7406 56.2593C68.9042 56.2593 64.9448 55.9663 61.8622 55.3802C58.8328 54.7942 56.4678 53.8619 54.767 52.5832C53.0663 51.3046 51.8174 49.5732 51.0202 47.3889C50.2761 45.2045 49.8243 42.5408 49.6649 39.3975C49.5055 36.2009 49.4257 32.445 49.4257 28.1296C49.4257 23.8143 49.5055 20.085 49.6649 16.9417C49.8243 13.7452 50.2761 11.0547 51.0202 8.87043C51.8174 6.68612 53.0663 4.95465 54.767 3.67603C56.4678 2.39741 58.8328 1.46509 61.8622 0.879049C64.9448 0.293016 68.9042 0 73.7406 0C78.577 0 82.5099 0.293016 85.5393 0.879049C88.6219 1.46509 91.0135 2.39741 92.7142 3.67603C94.4681 4.95465 95.717 6.68612 96.4611 8.87043C97.2052 11.0547 97.6569 13.7452 97.8164 16.9417C98.0289 20.085 98.1352 23.8143 98.1352 28.1296C98.1352 32.445 98.0289 36.2009 97.8164 39.3975C97.6569 42.5408 97.2052 45.2045 96.4611 47.3889C95.717 49.5732 94.4681 51.3046 92.7142 52.5832C91.0135 53.8619 88.6219 54.7942 85.5393 55.3802C82.5099 55.9663 78.577 56.2593 73.7406 56.2593ZM73.7406 42.9137C74.8567 42.9137 75.7602 42.8604 76.4511 42.7539C77.1952 42.6473 77.7532 42.3543 78.1253 41.8748C78.5505 41.3953 78.8428 40.6495 79.0022 39.6372C79.1617 38.5717 79.2679 37.1066 79.3211 35.242C79.3742 33.3773 79.4008 31.0065 79.4008 28.1296C79.4008 25.2527 79.3742 22.882 79.3211 21.0173C79.2679 19.1527 79.1617 17.7142 79.0022 16.702C78.8428 15.6365 78.5505 14.864 78.1253 14.3845C77.7532 13.905 77.1952 13.612 76.4511 13.5054C75.7602 13.3989 74.8567 13.3456 73.7406 13.3456C72.6245 13.3456 71.6945 13.3989 70.9504 13.5054C70.2595 13.612 69.728 13.905 69.356 14.3845C68.9839 14.864 68.6916 15.6365 68.479 16.702C68.3196 17.7142 68.2133 19.1527 68.1602 21.0173C68.1602 22.882 68.1602 25.2527 68.1602 28.1296C68.1602 31.0065 68.1602 33.3773 68.1602 35.242C68.2133 37.1066 68.3196 38.5717 68.479 39.6372C68.6916 40.6495 68.9839 41.3953 69.356 41.8748C69.728 42.3543 70.2595 42.6473 70.9504 42.7539C71.6945 42.8604 72.6245 42.9137 73.7406 42.9137Z" fill="#CDDEFF"/>
<path d="M128.833 56.2593C123.996 56.2593 120.037 55.9663 116.954 55.3802C113.925 54.7942 111.56 53.8619 109.859 52.5832C108.158 51.3046 106.91 49.5732 106.112 47.3889C105.368 45.2045 104.916 42.5408 104.757 39.3975C104.598 36.2009 104.518 32.445 104.518 28.1296C104.518 23.8143 104.598 20.085 104.757 16.9417C104.916 13.7452 105.368 11.0547 106.112 8.87043C106.91 6.68612 108.158 4.95465 109.859 3.67603C111.56 2.39741 113.925 1.46509 116.954 0.879049C120.037 0.293016 123.996 0 128.833 0C133.669 0 137.602 0.293016 140.631 0.879049C143.714 1.46509 146.106 2.39741 147.806 3.67603C149.56 4.95465 150.809 6.68612 151.553 8.87043C152.297 11.0547 152.749 13.7452 152.909 16.9417C153.121 20.085 153.227 23.8143 153.227 28.1296C153.227 32.445 153.121 36.2009 152.909 39.3975C152.749 42.5408 152.297 45.2045 151.553 47.3889C150.809 49.5732 149.56 51.3046 147.806 52.5832C146.106 53.8619 143.714 54.7942 140.631 55.3802C137.602 55.9663 133.669 56.2593 128.833 56.2593ZM128.833 42.9137C129.949 42.9137 130.852 42.8604 131.543 42.7539C132.287 42.6473 132.845 42.3543 133.217 41.8748C133.643 41.3953 133.935 40.6495 134.094 39.6372C134.254 38.5717 134.36 37.1066 134.413 35.242C134.466 33.3773 134.493 31.0065 134.493 28.1296C134.493 25.2527 134.466 22.882 134.413 21.0173C134.36 19.1527 134.254 17.7142 134.094 16.702C133.935 15.6365 133.643 14.864 133.217 14.3845C132.845 13.905 132.287 13.612 131.543 13.5054C130.852 13.3989 129.949 13.3456 128.833 13.3456C127.717 13.3456 126.787 13.3989 126.043 13.5054C125.352 13.612 124.82 13.905 124.448 14.3845C124.076 14.864 123.784 15.6365 123.571 16.702C123.412 17.7142 123.305 19.1527 123.252 21.0173C123.252 22.882 123.252 25.2527 123.252 28.1296C123.252 31.0065 123.252 33.3773 123.252 35.242C123.305 37.1066 123.412 38.5717 123.571 39.6372C123.784 40.6495 124.076 41.3953 124.448 41.8748C124.82 42.3543 125.352 42.6473 126.043 42.7539C126.787 42.8604 127.717 42.9137 128.833 42.9137Z" fill="#CDDEFF"/>
<path d="M160.328 55.62V0.639311H185.838L191.977 26.4515H192.694L198.753 0.639311H224.184V55.62H206.406V24.6933H205.529L198.195 55.62H185.838L178.504 24.6933H177.627V55.62H160.328Z" fill="#CDDEFF"/>
<path d="M9.06826 105C7.51813 105 6.20052 104.911 5.11543 104.734C4.05248 104.578 3.17777 104.267 2.49128 103.801C1.82694 103.335 1.30654 102.68 0.930078 101.837C0.575762 100.971 0.332171 99.8389 0.199303 98.4404C0.0664342 97.0419 0 95.3216 0 93.2793C0 91.2593 0.0664342 89.5611 0.199303 88.1848C0.332171 86.7863 0.575762 85.6542 0.930078 84.7885C1.30654 83.9228 1.82694 83.2568 2.49128 82.7906C3.17777 82.3245 4.05248 82.0026 5.11543 81.825C6.20052 81.6474 7.51813 81.5586 9.06826 81.5586C9.66617 81.5586 10.2751 81.5808 10.8952 81.6252C11.5374 81.6474 12.1464 81.6918 12.7221 81.7584C13.32 81.825 13.8404 81.9138 14.2833 82.0248V83.7896C13.7962 83.723 13.2758 83.6675 12.7221 83.6231C12.1907 83.5565 11.6481 83.5121 11.0945 83.4899C10.563 83.4677 10.0758 83.4566 9.63295 83.4566C8.25998 83.4566 7.11952 83.5121 6.21159 83.6231C5.30366 83.7341 4.57288 83.9672 4.01926 84.3223C3.48779 84.6553 3.07811 85.177 2.79023 85.8873C2.5245 86.5976 2.34734 87.5522 2.25876 88.7509C2.17018 89.9496 2.12589 91.4591 2.12589 93.2793C2.12589 95.0996 2.17018 96.6091 2.25876 97.8078C2.34734 99.0065 2.5245 99.961 2.79023 100.671C3.07811 101.382 3.48779 101.914 4.01926 102.27C4.57288 102.603 5.30366 102.825 6.21159 102.936C7.11952 103.047 8.25998 103.102 9.63295 103.102C10.3859 103.102 11.2052 103.069 12.091 103.002C12.9768 102.936 13.7519 102.858 14.4162 102.769V104.6C13.9512 104.689 13.4086 104.756 12.7886 104.8C12.1685 104.867 11.5374 104.911 10.8952 104.933C10.253 104.978 9.64402 105 9.06826 105Z" fill="#CBCBCB"/>
<path d="M48.3033 105C46.5539 105 45.1034 104.911 43.9519 104.734C42.8225 104.556 41.9256 104.234 41.2613 103.768C40.597 103.302 40.1098 102.636 39.7997 101.77C39.4897 100.882 39.2904 99.7501 39.2018 98.3738C39.1133 96.9975 39.069 95.2994 39.069 93.2793C39.069 91.2593 39.1133 89.5611 39.2018 88.1848C39.2904 86.8085 39.4897 85.6875 39.7997 84.8218C40.1098 83.9339 40.597 83.2568 41.2613 82.7906C41.9256 82.3245 42.8225 82.0026 43.9519 81.825C45.1034 81.6474 46.5539 81.5586 48.3033 81.5586C50.0527 81.5586 51.4922 81.6474 52.6215 81.825C53.7731 82.0026 54.681 82.3245 55.3453 82.7906C56.0097 83.2568 56.4969 83.9339 56.8069 84.8218C57.1169 85.6875 57.3162 86.8085 57.4048 88.1848C57.4934 89.5611 57.5377 91.2593 57.5377 93.2793C57.5377 95.2994 57.4934 96.9975 57.4048 98.3738C57.3162 99.7501 57.1169 100.882 56.8069 101.77C56.4969 102.636 56.0097 103.302 55.3453 103.768C54.681 104.234 53.7731 104.556 52.6215 104.734C51.4922 104.911 50.0527 105 48.3033 105ZM48.3033 103.102C49.632 103.102 50.7282 103.069 51.5918 103.002C52.4554 102.936 53.1419 102.747 53.6513 102.436C54.1606 102.125 54.5481 101.626 54.8139 100.938C55.0796 100.227 55.2457 99.2617 55.3121 98.0408C55.3786 96.7977 55.4118 95.2106 55.4118 93.2793C55.4118 91.3481 55.3786 89.772 55.3121 88.5511C55.2457 87.308 55.0796 86.3424 54.8139 85.6542C54.5481 84.9439 54.1606 84.4333 53.6513 84.1225C53.1419 83.8118 52.4554 83.6231 51.5918 83.5565C50.7282 83.4899 49.632 83.4566 48.3033 83.4566C46.9968 83.4566 45.9117 83.4899 45.048 83.5565C44.1844 83.6231 43.4868 83.8118 42.9554 84.1225C42.446 84.4333 42.0585 84.9439 41.7928 85.6542C41.5492 86.3424 41.3831 87.308 41.2945 88.5511C41.2281 89.772 41.1949 91.3481 41.1949 93.2793C41.1949 95.2106 41.2281 96.7977 41.2945 98.0408C41.3831 99.2617 41.5492 100.227 41.7928 100.938C42.0585 101.626 42.446 102.125 42.9554 102.436C43.4868 102.747 44.1844 102.936 45.048 103.002C45.9117 103.069 46.9968 103.102 48.3033 103.102Z" fill="#CBCBCB"/>
<path d="M83.7361 104.734V81.825H86.5927L95.2624 101.337H95.4285L104.098 81.825H106.888V104.734H104.829V85.4211H104.696L96.0928 104.734H94.4652L85.8952 85.4211H85.7623V104.734H83.7361Z" fill="#CBCBCB"/>
<path d="M133.899 104.734V81.825H144.263C145.702 81.825 146.832 82.0026 147.651 82.3578C148.47 82.7129 149.079 83.2124 149.478 83.8562C149.876 84.4777 150.131 85.1991 150.242 86.0205C150.353 86.8196 150.408 87.6743 150.408 88.5844C150.408 89.4279 150.33 90.2937 150.175 91.1816C150.042 92.0473 149.721 92.8243 149.212 93.5124C148.703 94.1784 147.883 94.6667 146.754 94.9775L150.707 104.734H148.382L144.495 94.8776L145.193 95.2106C145.038 95.255 144.838 95.2883 144.595 95.3105C144.351 95.3327 144.008 95.3438 143.565 95.3438H136.025V104.734H133.899ZM136.025 93.4458H143.333C144.484 93.4458 145.392 93.3348 146.056 93.1128C146.721 92.8908 147.208 92.569 147.518 92.1472C147.85 91.7254 148.061 91.2149 148.149 90.6155C148.238 90.0162 148.282 89.3391 148.282 88.5844C148.282 87.8074 148.238 87.1193 148.149 86.52C148.083 85.9206 147.906 85.41 147.618 84.9883C147.33 84.5665 146.876 84.2557 146.256 84.0559C145.636 83.834 144.783 83.723 143.698 83.723H136.025V93.4458Z" fill="#CBCBCB"/>
<path d="M174.079 104.734L183.081 81.825H185.605L194.574 104.734H192.348L189.691 97.9743H178.895L176.271 104.734H174.079ZM179.593 96.0763H188.993L184.376 84.2224H184.21L179.593 96.0763Z" fill="#CBCBCB"/>
<path d="M221.433 104.734V83.7563H213.993V81.825H231V83.7563H223.559V104.734H221.433Z" fill="#CBCBCB"/>
</svg>
